<mxfile host="app.diagrams.net" agent="Mozilla/5.0 (Windows NT 10.0; Win64; x64) AppleWebKit/537.36 (KHTML, like Gecko) Chrome/131.0.0.0 Safari/537.36" version="25.0.3">
  <diagram name="Página-1" id="MITLHxIVdPyLxFrWblrw">
    <mxGraphModel dx="1173" dy="579" grid="1" gridSize="10" guides="1" tooltips="1" connect="1" arrows="1" fold="1" page="1" pageScale="1" pageWidth="827" pageHeight="1169" math="0" shadow="0">
      <root>
        <mxCell id="0" />
        <mxCell id="1" parent="0" />
        <mxCell id="W8NCGSG_5_1_8IDFIb7M-26" style="edgeStyle=orthogonalEdgeStyle;rounded=0;orthogonalLoop=1;jettySize=auto;html=1;exitX=0.5;exitY=1;exitDx=0;exitDy=0;exitPerimeter=0;entryX=0.5;entryY=0;entryDx=0;entryDy=0;" edge="1" parent="1" source="W8NCGSG_5_1_8IDFIb7M-1" target="W8NCGSG_5_1_8IDFIb7M-3">
          <mxGeometry relative="1" as="geometry" />
        </mxCell>
        <mxCell id="W8NCGSG_5_1_8IDFIb7M-1" value="&lt;font style=&quot;vertical-align: inherit;&quot;&gt;&lt;font style=&quot;vertical-align: inherit;&quot;&gt;INICIO&lt;/font&gt;&lt;/font&gt;" style="strokeWidth=2;html=1;shape=mxgraph.flowchart.start_2;whiteSpace=wrap;" vertex="1" parent="1">
          <mxGeometry x="364" y="88" width="80" height="80" as="geometry" />
        </mxCell>
        <mxCell id="W8NCGSG_5_1_8IDFIb7M-2" value="&lt;font style=&quot;vertical-align: inherit;&quot;&gt;&lt;font style=&quot;vertical-align: inherit;&quot;&gt;FIM&lt;/font&gt;&lt;/font&gt;" style="strokeWidth=2;html=1;shape=mxgraph.flowchart.start_2;whiteSpace=wrap;" vertex="1" parent="1">
          <mxGeometry x="364" y="828" width="80" height="80" as="geometry" />
        </mxCell>
        <mxCell id="W8NCGSG_5_1_8IDFIb7M-27" style="edgeStyle=orthogonalEdgeStyle;rounded=0;orthogonalLoop=1;jettySize=auto;html=1;exitX=0.5;exitY=1;exitDx=0;exitDy=0;" edge="1" parent="1" source="W8NCGSG_5_1_8IDFIb7M-3" target="W8NCGSG_5_1_8IDFIb7M-4">
          <mxGeometry relative="1" as="geometry" />
        </mxCell>
        <mxCell id="W8NCGSG_5_1_8IDFIb7M-3" value="&lt;font style=&quot;vertical-align: inherit;&quot;&gt;&lt;font style=&quot;vertical-align: inherit;&quot;&gt;cadeia VENDEDOR&lt;/font&gt;&lt;/font&gt;" style="shape=parallelogram;html=1;strokeWidth=2;perimeter=parallelogramPerimeter;whiteSpace=wrap;rounded=1;arcSize=12;size=0.23;" vertex="1" parent="1">
          <mxGeometry x="321" y="188" width="166" height="50" as="geometry" />
        </mxCell>
        <mxCell id="W8NCGSG_5_1_8IDFIb7M-28" style="edgeStyle=orthogonalEdgeStyle;rounded=0;orthogonalLoop=1;jettySize=auto;html=1;exitX=0.5;exitY=1;exitDx=0;exitDy=0;" edge="1" parent="1" source="W8NCGSG_5_1_8IDFIb7M-4" target="W8NCGSG_5_1_8IDFIb7M-5">
          <mxGeometry relative="1" as="geometry" />
        </mxCell>
        <mxCell id="W8NCGSG_5_1_8IDFIb7M-4" value="&lt;font style=&quot;vertical-align: inherit;&quot;&gt;&lt;font style=&quot;vertical-align: inherit;&quot;&gt;real SALARIO&lt;/font&gt;&lt;/font&gt;" style="shape=parallelogram;html=1;strokeWidth=2;perimeter=parallelogramPerimeter;whiteSpace=wrap;rounded=1;arcSize=12;size=0.23;" vertex="1" parent="1">
          <mxGeometry x="321" y="258" width="166" height="50" as="geometry" />
        </mxCell>
        <mxCell id="W8NCGSG_5_1_8IDFIb7M-5" value="&lt;font style=&quot;vertical-align: inherit;&quot;&gt;&lt;font style=&quot;vertical-align: inherit;&quot;&gt;real FATURAMENTO&lt;/font&gt;&lt;/font&gt;" style="shape=parallelogram;html=1;strokeWidth=2;perimeter=parallelogramPerimeter;whiteSpace=wrap;rounded=1;arcSize=12;size=0.23;" vertex="1" parent="1">
          <mxGeometry x="321" y="328" width="166" height="50" as="geometry" />
        </mxCell>
        <mxCell id="W8NCGSG_5_1_8IDFIb7M-11" style="edgeStyle=orthogonalEdgeStyle;rounded=0;orthogonalLoop=1;jettySize=auto;html=1;exitX=1;exitY=0.5;exitDx=0;exitDy=0;exitPerimeter=0;entryX=0;entryY=0.5;entryDx=0;entryDy=0;" edge="1" parent="1" source="W8NCGSG_5_1_8IDFIb7M-6" target="W8NCGSG_5_1_8IDFIb7M-7">
          <mxGeometry relative="1" as="geometry" />
        </mxCell>
        <mxCell id="W8NCGSG_5_1_8IDFIb7M-12" value="&lt;font style=&quot;vertical-align: inherit;&quot;&gt;&lt;font style=&quot;vertical-align: inherit;&quot;&gt;SIM&lt;/font&gt;&lt;/font&gt;" style="edgeLabel;html=1;align=center;verticalAlign=middle;resizable=0;points=[];" vertex="1" connectable="0" parent="W8NCGSG_5_1_8IDFIb7M-11">
          <mxGeometry x="0.0492" y="6" relative="1" as="geometry">
            <mxPoint as="offset" />
          </mxGeometry>
        </mxCell>
        <mxCell id="W8NCGSG_5_1_8IDFIb7M-6" value="&lt;font style=&quot;vertical-align: inherit;&quot;&gt;&lt;font style=&quot;vertical-align: inherit;&quot;&gt;FATURAMENTO &amp;gt; R$ 5000&lt;/font&gt;&lt;/font&gt;" style="strokeWidth=2;html=1;shape=mxgraph.flowchart.decision;whiteSpace=wrap;" vertex="1" parent="1">
          <mxGeometry x="329" y="398" width="150" height="150" as="geometry" />
        </mxCell>
        <mxCell id="W8NCGSG_5_1_8IDFIb7M-7" value="&lt;font style=&quot;vertical-align: inherit;&quot;&gt;&lt;font style=&quot;vertical-align: inherit;&quot;&gt;SALARIO + ABONO R$ 300&lt;/font&gt;&lt;/font&gt;" style="rounded=1;whiteSpace=wrap;html=1;absoluteArcSize=1;arcSize=14;strokeWidth=2;" vertex="1" parent="1">
          <mxGeometry x="540" y="445.5" width="220" height="55" as="geometry" />
        </mxCell>
        <mxCell id="W8NCGSG_5_1_8IDFIb7M-8" value="&lt;font style=&quot;vertical-align: inherit;&quot;&gt;&lt;font style=&quot;vertical-align: inherit;&quot;&gt;&lt;font style=&quot;vertical-align: inherit;&quot;&gt;&lt;font style=&quot;vertical-align: inherit;&quot;&gt;&lt;font style=&quot;vertical-align: inherit;&quot;&gt;&lt;font style=&quot;vertical-align: inherit;&quot;&gt;&lt;font style=&quot;vertical-align: inherit;&quot;&gt;&lt;font style=&quot;vertical-align: inherit;&quot;&gt;SALÁRIO FINAL C/ ABONO&lt;/font&gt;&lt;/font&gt;&lt;/font&gt;&lt;/font&gt;&lt;/font&gt;&lt;/font&gt;&lt;/font&gt;&lt;/font&gt;" style="strokeWidth=2;html=1;shape=mxgraph.flowchart.display;whiteSpace=wrap;" vertex="1" parent="1">
          <mxGeometry x="575" y="558" width="150" height="90" as="geometry" />
        </mxCell>
        <mxCell id="W8NCGSG_5_1_8IDFIb7M-9" value="&lt;font style=&quot;vertical-align: inherit;&quot;&gt;&lt;font style=&quot;vertical-align: inherit;&quot;&gt;&lt;font style=&quot;vertical-align: inherit;&quot;&gt;&lt;font style=&quot;vertical-align: inherit;&quot;&gt;&lt;font style=&quot;vertical-align: inherit;&quot;&gt;&lt;font style=&quot;vertical-align: inherit;&quot;&gt;SALÁRIO FINAL S/ ABONO&lt;/font&gt;&lt;/font&gt;&lt;/font&gt;&lt;/font&gt;&lt;/font&gt;&lt;/font&gt;" style="strokeWidth=2;html=1;shape=mxgraph.flowchart.display;whiteSpace=wrap;" vertex="1" parent="1">
          <mxGeometry x="85" y="558" width="150" height="90" as="geometry" />
        </mxCell>
        <mxCell id="W8NCGSG_5_1_8IDFIb7M-10" value="" style="strokeWidth=2;html=1;shape=mxgraph.flowchart.start_2;whiteSpace=wrap;" vertex="1" parent="1">
          <mxGeometry x="384" y="728" width="40" height="40" as="geometry" />
        </mxCell>
        <mxCell id="W8NCGSG_5_1_8IDFIb7M-13" style="edgeStyle=orthogonalEdgeStyle;rounded=0;orthogonalLoop=1;jettySize=auto;html=1;exitX=0.5;exitY=1;exitDx=0;exitDy=0;entryX=0.5;entryY=0;entryDx=0;entryDy=0;entryPerimeter=0;" edge="1" parent="1" source="W8NCGSG_5_1_8IDFIb7M-7" target="W8NCGSG_5_1_8IDFIb7M-8">
          <mxGeometry relative="1" as="geometry" />
        </mxCell>
        <mxCell id="W8NCGSG_5_1_8IDFIb7M-14" style="edgeStyle=orthogonalEdgeStyle;rounded=0;orthogonalLoop=1;jettySize=auto;html=1;exitX=0.5;exitY=1;exitDx=0;exitDy=0;exitPerimeter=0;entryX=1;entryY=0.5;entryDx=0;entryDy=0;entryPerimeter=0;" edge="1" parent="1" source="W8NCGSG_5_1_8IDFIb7M-8" target="W8NCGSG_5_1_8IDFIb7M-10">
          <mxGeometry relative="1" as="geometry" />
        </mxCell>
        <mxCell id="W8NCGSG_5_1_8IDFIb7M-18" style="edgeStyle=orthogonalEdgeStyle;rounded=0;orthogonalLoop=1;jettySize=auto;html=1;exitX=0.5;exitY=1;exitDx=0;exitDy=0;exitPerimeter=0;entryX=0.5;entryY=0;entryDx=0;entryDy=0;entryPerimeter=0;" edge="1" parent="1" source="W8NCGSG_5_1_8IDFIb7M-10" target="W8NCGSG_5_1_8IDFIb7M-2">
          <mxGeometry relative="1" as="geometry" />
        </mxCell>
        <mxCell id="W8NCGSG_5_1_8IDFIb7M-23" style="edgeStyle=orthogonalEdgeStyle;rounded=0;orthogonalLoop=1;jettySize=auto;html=1;exitX=0.5;exitY=1;exitDx=0;exitDy=0;exitPerimeter=0;entryX=0;entryY=0.5;entryDx=0;entryDy=0;entryPerimeter=0;" edge="1" parent="1" source="W8NCGSG_5_1_8IDFIb7M-9" target="W8NCGSG_5_1_8IDFIb7M-10">
          <mxGeometry relative="1" as="geometry" />
        </mxCell>
        <mxCell id="W8NCGSG_5_1_8IDFIb7M-24" style="edgeStyle=orthogonalEdgeStyle;rounded=0;orthogonalLoop=1;jettySize=auto;html=1;exitX=0;exitY=0.5;exitDx=0;exitDy=0;exitPerimeter=0;entryX=0.5;entryY=0;entryDx=0;entryDy=0;entryPerimeter=0;" edge="1" parent="1" source="W8NCGSG_5_1_8IDFIb7M-6" target="W8NCGSG_5_1_8IDFIb7M-9">
          <mxGeometry relative="1" as="geometry" />
        </mxCell>
        <mxCell id="W8NCGSG_5_1_8IDFIb7M-25" value="&lt;font style=&quot;vertical-align: inherit;&quot;&gt;&lt;font style=&quot;vertical-align: inherit;&quot;&gt;NAO&lt;/font&gt;&lt;/font&gt;" style="edgeLabel;html=1;align=center;verticalAlign=middle;resizable=0;points=[];" vertex="1" connectable="0" parent="W8NCGSG_5_1_8IDFIb7M-24">
          <mxGeometry x="-0.3227" y="2" relative="1" as="geometry">
            <mxPoint x="-1" as="offset" />
          </mxGeometry>
        </mxCell>
        <mxCell id="W8NCGSG_5_1_8IDFIb7M-30" style="edgeStyle=orthogonalEdgeStyle;rounded=0;orthogonalLoop=1;jettySize=auto;html=1;exitX=0.5;exitY=1;exitDx=0;exitDy=0;entryX=0.5;entryY=0;entryDx=0;entryDy=0;entryPerimeter=0;" edge="1" parent="1" source="W8NCGSG_5_1_8IDFIb7M-5" target="W8NCGSG_5_1_8IDFIb7M-6">
          <mxGeometry relative="1" as="geometry" />
        </mxCell>
      </root>
    </mxGraphModel>
  </diagram>
</mxfile>
